<svg height="512" viewBox="0 0 64 64" width="512" xmlns="http://www.w3.org/2000/svg"><path d="m48 52h-2v2h-2v2h2v2h2v-2h2v-2h-2z"/><path d="m44 60h6v2h-6z"/><path d="m51 12a1 1 0 0 1 1 1 1 1 0 0 0 2 0 3 3 0 0 0 -3-3 1 1 0 0 0 0 2z"/><path d="m51 2a1 1 0 0 0 0 2 9.011 9.011 0 0 1 9 9 1 1 0 0 0 2 0 11.013 11.013 0 0 0 -11-11z"/><path d="m51 8a5.006 5.006 0 0 1 5 5 1 1 0 0 0 2 0 7.008 7.008 0 0 0 -7-7 1 1 0 0 0 0 2z"/><path d="m45 22.414v2.586h2.586z"/><path d="m14 8h18a1 1 0 0 0 1-1v-3h-20v3a1 1 0 0 0 1 1z"/><path d="m40 50.949a18.974 18.974 0 0 1 0-37.9v-6.049a3 3 0 0 0 -3-3h-2v3a3 3 0 0 1 -3 3h-18a3 3 0 0 1 -3-3v-3h-2a3 3 0 0 0 -3 3v50a3 3 0 0 0 3 3h28a3 3 0 0 0 3-3zm-9.634-39.367 1 1.731-1.732 1-1-1.731zm-.732 38.1 1.732 1-1 1.731-1.732-1zm-4.19-3.545 1.414 1.414-1.415 1.415-1.414-1.414zm-3.131-4.508 1 1.732-1.731 1-1-1.732zm-3.271-2.716-.517-1.931 1.932-.518.517 1.932zm6.4-23.889 1.415 1.415-1.414 1.414-1.415-1.415zm-3.861 4.605 1.731 1-1 1.732-1.731-1zm-2.54 5.448 1.932.517-.517 1.932-1.932-.518zm-1.041 5.923h2v2h-2zm16 27h-22a1 1 0 0 1 0-2h22a1 1 0 0 1 0 2z"/><path d="m43 26v-5h-10v22h16v-16h-5a1 1 0 0 1 -1-1zm-6 13h-2v-2h2zm0-4h-2v-2h2zm0-4h-2v-2h2zm10 8h-8v-2h8zm0-4h-8v-2h8zm0-4h-8v-2h8z"/><path d="m58 32a17 17 0 1 0 -17 17 17.019 17.019 0 0 0 17-17zm-27 12v-24a1 1 0 0 1 1-1h12a1 1 0 0 1 .707.293l6 6a1 1 0 0 1 .293.707v18a1 1 0 0 1 -1 1h-18a1 1 0 0 1 -1-1z"/></svg>