<svg id="Layer_1" height="512" viewBox="0 0 512 512" width="512" xmlns="http://www.w3.org/2000/svg" data-name="Layer 1"><path d="m49.117 362.225a93.893 93.893 0 0 0 15.4 22.865 85.722 85.722 0 0 1 21.983 57.616 7.594 7.594 0 0 0 7.585 7.586h18.9a7.6 7.6 0 0 0 7.586-7.586 19.608 19.608 0 0 1 19.586-19.586h35.271a19.608 19.608 0 0 1 19.586 19.586 7.6 7.6 0 0 0 7.586 7.586h30.062c-13.234-13.3-20.157-29.5-20.157-47.49v-33.302a6 6 0 0 1 3.625-5.51l.377-.162a272.658 272.658 0 0 0 55.807-32.312 6 6 0 0 1 7.2 0q7.46 5.6 15.305 10.647c.425-5.188.646-10.886.646-14.558 0-54.9-46.965-100.1-106.6-104.709v1.274h-12v-1.647a144.8 144.8 0 0 0 -14.7.958 60.946 60.946 0 0 1 4.622 23.324 6 6 0 0 1 -12 0 49.363 49.363 0 0 0 -41.064-48.6 85.37 85.37 0 0 1 2.084 30.922 6 6 0 0 1 -4.063 5.011 115.35 115.35 0 0 0 -56.754 46.1l-6.853 10.828a6 6 0 0 1 -5.07 2.792h-17.853a3.217 3.217 0 0 0 -3.214 3.208v58.5a3.218 3.218 0 0 0 3.214 3.214h18.474a6 6 0 0 1 5.429 3.445zm37.271-86.367a6 6 0 0 1 6 6 9.664 9.664 0 0 0 19.327 0 6 6 0 0 1 12 0 21.664 21.664 0 0 1 -43.327 0 6 6 0 0 1 6-6z"/><path d="m314.424 51.126-42.778 42.779h85.557z"/><path d="m413.088 93.905-44.487-44.486-19.457 19.457 25.029 25.029z"/><circle cx="275.632" cy="435.604" r="3"/><path d="m252.245 451.008a6 6 0 0 1 .992.671 99.78 99.78 0 0 0 21.711 10.9 103.971 103.971 0 0 0 25.975-13.233c17.515-12.481 26.395-28.141 26.395-46.546v-29.376a284.75 284.75 0 0 1 -51.408-29.654 284.74 284.74 0 0 1 -51.41 29.654v29.376c0 18.44 8.571 34.115 25.473 46.592.758.56 1.516 1.095 2.272 1.616zm17.665-71.554a6 6 0 0 1 12 0v31.794a6 6 0 0 1 -12 0zm5.722 47.15a9 9 0 1 1 -9 9 9.011 9.011 0 0 1 9-9.004z"/><path d="m306.45 312.907a20.69 20.69 0 0 0 16.687-20.269 6 6 0 0 1 12 0 32.711 32.711 0 0 1 -27.713 32.286c.022.891.037 1.783.037 2.679 0 .662-.008 1.4-.021 2.172h141.532a27.3 27.3 0 0 0 27.264-27.264v-42.383h-54.475a42.288 42.288 0 0 1 0-84.576h54.475v-42.383a27.3 27.3 0 0 0 -27.264-27.264h-232.846a27.3 27.3 0 0 0 -27.263 27.264v77.687c60.896 4.308 110.037 47.373 117.587 102.051z"/><path d="m391.474 217.84a30.322 30.322 0 0 0 30.287 30.288h68.239v-60.576h-68.239a30.322 30.322 0 0 0 -30.287 30.288zm51.256 0a19.608 19.608 0 1 1 -19.608-19.608 19.63 19.63 0 0 1 19.608 19.608z"/><path d="m423.122 225.448a7.608 7.608 0 1 0 -7.608-7.608 7.617 7.617 0 0 0 7.608 7.608z"/></svg>