<svg height="537pt" viewBox="-17 -80 537.33571 537" width="537pt" xmlns="http://www.w3.org/2000/svg"><path d="m228.144531 341.699219c10.863281 0 19.671875-8.808594 19.671875-19.671875 0-10.863282-8.808594-19.675782-19.671875-19.675782s-19.667969 8.8125-19.667969 19.675782c-.050781 5.230468 2.007813 10.261718 5.707032 13.960937 3.699218 3.699219 8.726562 5.757813 13.960937 5.710938zm0 0"/><path d="m260.722656 304.277344c.140625.25.277344.507812.410156.761718.246094.492188.492188.988282.71875 1.5.101563.21875.210938.433594.308594.652344.316406.726563.613282 1.457032.886719 2.203125.023437.066407.039063.132813.0625.195313.246094.683594.46875 1.367187.667969 2.0625.078125.25.136718.507812.210937.765625.136719.511719.265625 1.027343.382813 1.550781.070312.289062.128906.582031.1875.871094.097656.496094.1875 1.003906.265625 1.503906.046875.300781.09375.589844.128906.890625.066406.535156.121094 1.082031.167969 1.621094.027344.25.054687.507812.074218.765625.050782.800781.082032 1.601562.082032 2.40625 0 .804687-.027344 1.628906-.082032 2.4375-.019531.257812-.042968.511718-.066406.769531-.046875.550781-.097656 1.097656-.171875 1.644531-.035156.296875-.082031.589844-.121093.878906-.078126.507813-.171876 1.015626-.269532 1.523438-.054687.285156-.113281.578125-.179687.871094-.113281.523437-.25 1.042968-.378907 1.558594-.070312.25-.128906.507812-.207031.757812-.199219.6875-.417969 1.375-.65625 2.046875-.019531.066406-.039062.136719-.070312.203125-.261719.738281-.558594 1.460938-.871094 2.183594-.097656.230468-.210937.453125-.3125.679687-.222656.484375-.457031.972657-.699219 1.449219-.136718.265625-.285156.527344-.425781.785156-.238281.433594-.480469.867188-.742187 1.292969-.082032.144531-.160157.296875-.246094.441406.8125.105469 1.636718.152344 2.457031.152344 10.863281 0 19.667969-8.804687 19.667969-19.675781 0-10.863282-8.804688-19.667969-19.667969-19.667969-.839844 0-1.683594.050781-2.515625.15625.085938.140625.15625.285156.242188.421875.265624.445312.515624.886719.761718 1.339844zm0 0"/><path d="m0 331.207031c.0234375 22.722657 18.445312 41.148438 41.171875 41.171875h263.667969c20.269531-.023437 36.691406-16.449218 36.714844-36.714844v-127.585937h-341.554688zm228.144531-46.316406c5.933594-.015625 11.777344 1.402344 17.042969 4.136719 15.625-8.070313 34.769531-4.074219 45.863281 9.574218 11.09375 13.648438 11.09375 33.203126 0 46.851563-11.09375 13.644531-30.238281 17.644531-45.863281 9.574219-13.683594 7.066406-30.308594 4.957031-41.789062-5.308594-11.484376-10.261719-15.441407-26.546875-9.953126-40.9375 5.492188-14.386719 19.300782-23.890625 34.699219-23.894531zm0 0"/><path d="m467.035156-4.136719h-268.121094c-18.65625.023438-34.335937 14.015625-36.476562 32.550781h341.070312c-2.140624-18.535156-17.816406-32.527343-36.472656-32.550781zm0 0"/><path d="m396.453125 165.65625h57.394531v19.964844h-57.394531zm0 0"/><path d="m162.195312 128.113281h142.644532c29.90625.035157 54.144531 24.273438 54.183594 54.183594v52.839844h108.011718c20.269532-.027344 36.691406-16.449219 36.71875-36.714844v-110.121094h-341.558594zm216.789063 33.800781c.007813-7.578124 6.148437-13.71875 13.726563-13.726562h64.878906c7.574218.007812 13.714844 6.148438 13.722656 13.726562v27.449219c-.007812 7.574219-6.148438 13.714844-13.722656 13.722657h-64.878906c-7.578126-.007813-13.71875-6.148438-13.726563-13.722657zm0 0"/><path d="m162.195312 45.875h341.558594v24.953125h-341.558594zm0 0"/><path d="m304.839844 145.582031h-268.121094c-20.269531.019531-36.6953125 16.445313-36.71484375 36.714844v8.308594h341.55078175v-8.308594c-.023438-20.269531-16.445313-36.695313-36.714844-36.714844zm0 0"/></svg>