<?xml version="1.0"?>
<svg xmlns="http://www.w3.org/2000/svg" height="512px" viewBox="0 0 64 64" width="512px"><g id="Smart_plug" data-name="Smart plug"><path d="m61 11h-3l1-8-8 8h4l-2 8z" fill="#C4C2C2"/><path d="m3 7h2v2a1 1 0 0 0 2 0v-2h2a1 1 0 0 0 0-2h-2v-2a1 1 0 0 0 -2 0v2h-2a1 1 0 0 0 0 2z" fill="#C4C2C2"/><path d="m17.333 15.6c-.249.222-.491.45-.729.683a1 1 0 1 0 1.396 1.431q.327-.318.665-.622a1 1 0 1 0 -1.334-1.49z" fill="#C4C2C2"/><path d="m52.163 26.029a1 1 0 0 0 -.733 1.209c.077.314.146.632.208.951a1 1 0 0 0 .981.811 1.035 1.035 0 0 0 .19-.018 1 1 0 0 0 .793-1.171q-.1-.53-.23-1.049a1 1 0 0 0 -1.209-.733z" fill="#C4C2C2"/><path d="m38.759 59.179q-.479.118-.964.221a1 1 0 0 0 .2 1.978.967.967 0 0 0 .206-.021q.52-.109 1.036-.237a1 1 0 1 0 -.482-1.941z" fill="#C4C2C2"/><path d="m61 31a1 1 0 0 0 -1 1 27.851 27.851 0 0 1 -17.762 26.07 1 1 0 0 0 .362 1.93.978.978 0 0 0 .365-.07 29.84 29.84 0 0 0 19.035-27.93 1 1 0 0 0 -1-1z" fill="#C4C2C2"/><path d="m30 4.068h.068c.321-.021.643-.038.967-.048a1 1 0 0 0 .965-1.037.979.979 0 0 0 -1.034-.965c-.346.011-.69.029-1.033.052a1 1 0 0 0 .066 2z" fill="#C4C2C2"/><path d="m3 33a1 1 0 0 0 1-1 28.111 28.111 0 0 1 22.206-27.4 1 1 0 1 0 -.412-1.957 30.119 30.119 0 0 0 -23.794 29.357 1 1 0 0 0 1 1z" fill="#C4C2C2"/><path d="m61 57h-2v-2a1 1 0 0 0 -2 0v2h-2a1 1 0 0 0 0 2h2v2a1 1 0 0 0 2 0v-2h2a1 1 0 0 0 0-2z" fill="#C4C2C2"/><path d="m37 18h2v-9a1 1 0 0 0 -2 0z" fill="#C4C2C2"/><path d="m21 21a1 1 0 0 0 1 1h20a1 1 0 0 0 0-2h-20a1 1 0 0 0 -1 1z" fill="#C4C2C2"/><path d="m25 18h2v-9a1 1 0 0 0 -2 0z" fill="#C4C2C2"/><path d="m41 35v-11h-18v11a5.006 5.006 0 0 0 5 5h8a5.006 5.006 0 0 0 5-5zm-4-3h1a1 1 0 0 1 0 2h-1a1 1 0 0 1 0-2zm0 4h1a1 1 0 0 1 0 2h-1a1 1 0 0 1 0-2zm-4 2h-7a1 1 0 0 1 0-2h7a1 1 0 0 1 0 2zm0-4h-7a1 1 0 0 1 0-2h7a1 1 0 0 1 0 2z" fill="#C4C2C2"/><path d="m35 43v-1h-6v1a1 1 0 0 0 1 1h4a1 1 0 0 0 1-1z" fill="#C4C2C2"/><path d="m31 46h2v15h-2z" fill="#C4C2C2"/><path d="m13 53h-3l1-8-8 8h4l-2 8z" fill="#C4C2C2"/><path d="m53 31a1 1 0 0 0 -1 1 19.872 19.872 0 0 1 -17 19.75v2.017a21.861 21.861 0 0 0 19-21.767 1 1 0 0 0 -1-1z" fill="#C4C2C2"/><path d="m29 51.75a19.981 19.981 0 0 1 -13.192-31.491 1 1 0 0 0 -1.616-1.178 21.978 21.978 0 0 0 14.808 34.686z" fill="#C4C2C2"/></g></svg>
